# xmcd
#
# Track frame offsets: 
#        150
#        14839
#        26773
#        37265
#        49452
#        62509
#        73910
#        87300
#        98776
#        109960
#        124294
#        139179
#        154148
#        168919
#        180485
#        193837
#        206835
#        220901
#        234346
#        247452
#        255654
#        267727
#        281605
#        294901
#        305863
#
# Disc length: 4259 seconds
#
# Revision: 0
# Processed by: cddbd v1.5.2PL0 Copyright (c) Steve Scherf et al.
# Submitted via: ExactAudioCopy v1.0b1
#
DISCID=9910a119
DTITLE=Red Foley - Chattanoogie Shoe Shine Boy {CD3}
DYEAR=2007
DGENRE=Country
TTITLE0=Sunday Down In Tennessee
TTITLE1=As Far As I'm Concerned
TTITLE2=Double Datin'
TTITLE3=Have I Told You Lately That I Love You
TTITLE4=I'm Throwing Rice At The Girl I Love
TTITLE5=Make Believe
TTITLE6=That's How Much I Love You
TTITLE7=Skinnie Minnie
TTITLE8=Plantation Boogie
TTITLE9=Peace In The Valley
TTITLE10=Old Shep
TTITLE11=My Heart Cries For You
TTITLE12=Never Trust A Woman
TTITLE13=Be Honest With Me
TTITLE14=Crawdad Song
TTITLE15=Hillbilly Fever No.2
TTITLE16=I Gotta Have My Baby Back
TTITLE17=Night Train To Memphis
TTITLE18=Too Old To Cut The Mustard
TTITLE19=Hobo Boogie
TTITLE20=Hot Toddy
TTITLE21=Birmingham Bounce
TTITLE22=Just A Closer Walk With Thee
TTITLE23=I Gotta Have You
TTITLE24=Goodnight Irene
EXTD=
EXTT0=
EXTT1=
EXTT2=
EXTT3=
EXTT4=
EXTT5=
EXTT6=
EXTT7=
EXTT8=
EXTT9=
EXTT10=
EXTT11=
EXTT12=
EXTT13=
EXTT14=
EXTT15=
EXTT16=
EXTT17=
EXTT18=
EXTT19=
EXTT20=
EXTT21=
EXTT22=
EXTT23=
EXTT24=
PLAYORDER=
